<svg id="Layer_1" height="512" viewBox="0 0 512 512" width="512" xmlns="http://www.w3.org/2000/svg" data-name="Layer 1"><path d="m257.79 212.351a2.235 2.235 0 0 1 -1.56.63l-1.78-177.781h.02a19.22 19.22 0 0 1 19.24-19.2h108.66a14.37 14.37 0 0 1 14.37 14.36v154.94a14.37 14.37 0 0 1 -14.37 14.36h-110.63a2.229 2.229 0 0 0 -1.55.63z" fill="#e5e5e5"/><path d="m254.45 35.2 1.78 177.78a2.189 2.189 0 0 1 -1.54-.63l-12.4-12.06a2.229 2.229 0 0 0 -1.55-.63h-112.05a14.37 14.37 0 0 1 -14.37-14.36v-154.939a14.37 14.37 0 0 1 14.37-14.361h106.53a19.218 19.218 0 0 1 19.23 19.2z" fill="#e2e4ed"/><path d="m175.17 387.861 1.87 1.68a53.04 53.04 0 0 0 -8.84 29.42v53.339h-127.7v-46.69a46.672 46.672 0 0 1 45.45-46.67 40.12 40.12 0 0 0 63.34 1.56 10.4 10.4 0 0 1 1.31-1.49 46.358 46.358 0 0 1 24.57 8.851z" fill="#fbb040"/><path d="m158.87 300.961v21.08a41.325 41.325 0 0 1 -41.33 41.33h-.22a41.325 41.325 0 0 1 -41.33-41.33v-21.08a41.323 41.323 0 0 1 41.33-41.32h.22a41.323 41.323 0 0 1 41.33 41.32z" fill="#fbb040"/><path d="m471.5 425.611v46.689h-127.52v-53.34a53.078 53.078 0 0 0 -9-29.68 46.4 46.4 0 0 1 28.11-10.34 40.12 40.12 0 0 0 63.34 1.56 10.4 10.4 0 0 1 1.31-1.49 46.667 46.667 0 0 1 43.76 46.601z" fill="#eadf53"/><path d="m436.01 300.961v21.08a41.325 41.325 0 0 1 -41.33 41.33h-.22a41.325 41.325 0 0 1 -41.33-41.33v-21.08a41.323 41.323 0 0 1 41.33-41.32h.22a41.323 41.323 0 0 1 41.33 41.32z" fill="#eadf53"/><rect fill="#fb6771" height="118.51" rx="47.22" width="94.69" x="208.75" y="229.341"/><path d="m334.98 389.281a53.078 53.078 0 0 1 9 29.68v77.039h-175.78v-77.04a53.322 53.322 0 0 1 51.93-53.32 45.831 45.831 0 0 0 72.36 1.78 12.886 12.886 0 0 1 1.5-1.7 53.268 53.268 0 0 1 40.99 23.561z" fill="#fb6771"/><path d="m240.74 199.66a2.225 2.225 0 0 1 1.55.631l12.4 12.059a2.185 2.185 0 0 0 1.54.631l-.13-13.321z" fill="#c0fffd"/><path d="m144.32 185.3v-154.939a14.369 14.369 0 0 1 14.37-14.361h-30a14.369 14.369 0 0 0 -14.37 14.36v154.94a14.369 14.369 0 0 0 14.37 14.36h30a14.369 14.369 0 0 1 -14.37-14.36z" fill="#b0b5ca"/><path d="m238.75 300.64v-24.08a47.228 47.228 0 0 1 32.35-44.815 47.149 47.149 0 0 0 -14.875-2.4h-.25a47.218 47.218 0 0 0 -47.22 47.219v24.08a47.21 47.21 0 0 0 47.22 47.21h.25a47.177 47.177 0 0 0 14.875-2.4 47.215 47.215 0 0 1 -32.35-44.814z" fill="#e75163"/><path d="m220.13 365.64a53.324 53.324 0 0 0 -51.93 53.321v77.039h30v-77.04a53.037 53.037 0 0 1 8.84-29.42 53.59 53.59 0 0 1 18.919-17.386 46.3 46.3 0 0 1 -5.829-6.514z" fill="#e75163"/><g fill="#284268"><path d="m128.693 205.661h110.516l11.291 10.991a8.183 8.183 0 0 0 11.476 0l11.3-10.993h109.1a20.389 20.389 0 0 0 20.362-20.359v-154.938a20.388 20.388 0 0 0 -20.369-20.362h-108.663a25.2 25.2 0 0 0 -19.243 8.917 25.2 25.2 0 0 0 -19.243-8.917h-106.527a20.389 20.389 0 0 0 -20.369 20.362v154.938a20.389 20.389 0 0 0 20.369 20.361zm131.781-170.461a13.231 13.231 0 0 1 13.232-13.2h108.663a8.375 8.375 0 0 1 8.369 8.362v154.938a8.375 8.375 0 0 1 -8.369 8.362h-110.629a8.178 8.178 0 0 0 -5.736 2.33l-3.9 3.8-1.652-164.592zm-140.15-4.838a8.375 8.375 0 0 1 8.369-8.362h106.527a13.244 13.244 0 0 1 13.232 13.26l1.648 164.252-3.617-3.519a8.178 8.178 0 0 0 -5.738-2.332h-112.052a8.375 8.375 0 0 1 -8.369-8.362z"/><path d="m179.854 53.328h44.858a6 6 0 0 0 0-12h-44.858a6 6 0 0 0 0 12z"/><path d="m141 53.328h17.319a6 6 0 0 0 0-12h-17.319a6 6 0 0 0 0 12z"/><path d="m224.712 80.344h-10.356a6 6 0 0 0 0 12h10.356a6 6 0 0 0 0-12z"/><path d="m141 92.344h51.858a6 6 0 0 0 0-12h-51.858a6 6 0 0 0 0 12z"/><path d="m224.712 119.361h-62.136a6 6 0 0 0 0 12h62.136a6 6 0 1 0 0-12z"/><path d="m140.869 131.361h.131a6 6 0 1 0 0-12h-.127a6 6 0 0 0 0 12z"/><path d="m224.712 158.378h-5.929a6 6 0 1 0 0 12h5.929a6 6 0 0 0 0-12z"/><path d="m196.97 158.378h-55.97a6 6 0 0 0 0 12h55.97a6 6 0 0 0 0-12z"/><path d="m359.208 53.328h9.2a6 6 0 0 0 0-12h-9.2a6 6 0 0 0 0 12z"/><path d="m284.69 53.328h52.31a6 6 0 0 0 0-12h-52.31a6 6 0 0 0 0 12z"/><path d="m368.407 80.344h-49a6 6 0 0 0 0 12h49a6 6 0 0 0 0-12z"/><path d="m284.69 92.344h12.87a6 6 0 0 0 0-12h-12.87a6 6 0 0 0 0 12z"/><path d="m368.407 119.361h-16.047a6 6 0 0 0 0 12h16.047a6 6 0 1 0 0-12z"/><path d="m284.69 131.361h46.183a6 6 0 1 0 0-12h-46.183a6 6 0 0 0 0 12z"/><path d="m368.407 158.378h-53.54a6 6 0 0 0 0 12h53.54a6 6 0 0 0 0-12z"/><path d="m284.69 170.378h8.747a6 6 0 0 0 0-12h-8.747a6 6 0 0 0 0 12z"/><path d="m255.966 223.343a53.274 53.274 0 0 0 -53.214 53.213v24.085a53.275 53.275 0 0 0 53.214 53.214h.257a53.275 53.275 0 0 0 53.214-53.214v-24.085a53.275 53.275 0 0 0 -53.214-53.213zm41.471 53.213v24.085a41.261 41.261 0 0 1 -41.214 41.214h-.257a41.261 41.261 0 0 1 -41.214-41.214v-24.085a41.26 41.26 0 0 1 41.214-41.213h.257a41.26 41.26 0 0 1 41.214 41.213z"/><path d="m394.457 253.636a47.38 47.38 0 0 0 -47.326 47.327v21.082a47.38 47.38 0 0 0 47.326 47.326h.225a47.38 47.38 0 0 0 47.326-47.326v-21.082a47.381 47.381 0 0 0 -47.326-47.327zm35.551 47.327v21.082a35.366 35.366 0 0 1 -35.326 35.326h-.225a35.366 35.366 0 0 1 -35.326-35.326v-21.082a35.367 35.367 0 0 1 35.326-35.327h.225a35.367 35.367 0 0 1 35.326 35.327z"/><path d="m428.1 373.02c-3.142-.192-4.76 1.774-6.318 3.674a34.113 34.113 0 0 1 -53.87-1.32 5.991 5.991 0 0 0 -4.978-2.436 52.007 52.007 0 0 0 -26.7 8.076 59.069 59.069 0 0 0 -41.877-21.283c-3.163-.194-4.716 1.695-6.51 3.885a39.827 39.827 0 0 1 -62.894-1.541 5.945 5.945 0 0 0 -4.978-2.436 58.915 58.915 0 0 0 -40.9 17.864c-1.126 1.154-2.186 2.355-3.206 3.583a52.341 52.341 0 0 0 -24.9-8.066c-3.153-.192-4.761 1.774-6.317 3.674a34.114 34.114 0 0 1 -53.871-1.32 5.976 5.976 0 0 0 -4.978-2.436 52.67 52.67 0 0 0 -51.3 52.673v46.689a6 6 0 0 0 6 6h121.702v17.7a6 6 0 0 0 6 6h175.778a6 6 0 0 0 6-6v-17.7h121.517a6 6 0 0 0 6-6v-46.689a52.719 52.719 0 0 0 -49.4-52.591zm-381.6 93.28v-40.689a40.949 40.949 0 0 1 36.694-40.5 46.115 46.115 0 0 0 69.912.162 40.341 40.341 0 0 1 16.052 5.774 59.122 59.122 0 0 0 -6.953 27.912v47.341zm291.483 23.7h-163.778v-71.039a47.327 47.327 0 0 1 43.139-47.161 51.829 51.829 0 0 0 79.16.173 47.375 47.375 0 0 1 41.479 46.989zm127.517-23.7h-115.517v-47.339a59.07 59.07 0 0 0 -7.027-27.976 39.994 39.994 0 0 1 17.374-5.876 46.115 46.115 0 0 0 69.915.166 40.72 40.72 0 0 1 35.255 40.336z"/><path d="m117.318 369.371h.225a47.38 47.38 0 0 0 47.326-47.326v-21.082a47.38 47.38 0 0 0 -47.326-47.327h-.225a47.381 47.381 0 0 0 -47.326 47.327v21.082a47.38 47.38 0 0 0 47.326 47.326zm-35.326-68.408a35.367 35.367 0 0 1 35.326-35.327h.225a35.367 35.367 0 0 1 35.326 35.327v21.082a35.366 35.366 0 0 1 -35.326 35.326h-.225a35.366 35.366 0 0 1 -35.326-35.326z"/></g></svg>